<svg version="1.1" id="person-ghost-images" xmlns="http://www.w3.org/2000/svg" xmlns:xlink="http://www.w3.org/1999/xlink">
  <style>
    path {
      visibility: hidden;
    }

    @media (max-width: 26px) {
      .person-ghost-26 {
        visibility: visible;
      }
    }

    @media (min-width: 27px) and (max-width: 36px) {
      .person-ghost-36 {
        visibility: visible;
      }
    }

    @media (min-width: 37px) and (max-width: 44px) {
      .person-ghost-44 {
        visibility: visible;
      }
    }

    @media (min-width: 45px) and (max-width: 54px) {
      .person-ghost-54 {
        visibility: visible;
      }
    }

    @media (min-width: 55px) and (max-width: 70px) {
      .person-ghost-70 {
        visibility: visible;
      }
    }

    @media (min-width: 71px) and (max-width: 86px) {
      .person-ghost-86 {
        visibility: visible;
      }
    }

    @media (min-width: 87px) and (max-width: 104px) {
      .person-ghost-104 {
        visibility: visible;
      }
    }

    @media (min-width: 105px) {
      .person-ghost-128 {
        visibility: visible;
      }
    }
  </style>

  <symbol id="person-ghost-26" viewBox="3 3 26 26">
    <path class="person-ghost-26" opacity="0.55" fill="#FFFFFF" d="M20.6,17.5l-2.3-0.8c0.4-0.5,0.6-1.1,0.6-1.8v-2c0-1.7-1.3-3-3-3s-3,1.3-3,3v2c0,0.7,0.2,1.3,0.6,1.8l-2.3,0.8c-0.8,0.3-1.4,1-1.4,1.9V22h12v-2.6C22,18.6,21.4,17.8,20.6,17.5z M15,12.5c0-0.6,0.4-1,1-1s1,0.4,1,1v3c0,0.6-0.4,1-1,1s-1-0.4-1-1V12.5z M20,20h-8v-0.9l4-1.3l4,1.3V20z"/>
  </symbol>

  <symbol id="person-ghost-36" viewBox="2 2 36 36">
    <path class="person-ghost-36" opacity="0.55" fill="#FFFFFF" d="M25.6,21.9l-3.3-1.1c0.4-0.5,0.6-1.1,0.6-1.8v-3c0-1.7-1.3-3-3-3c-1.7,0-3,1.3-3,3v3c0,0.7,0.2,1.3,0.6,1.8l-3.3,1.1c-0.8,0.3-1.4,1-1.4,1.9V27h14v-3.2C27,23,26.4,22.2,25.6,21.9z M19,15.5c0-0.6,0.4-1,1-1c0.6,0,1,0.4,1,1v4c0,0.6-0.4,1-1,1c-0.6,0-1-0.4-1-1V15.5z M25,25H15v-1.6l5-1.7l5,1.7V25z"/>
  </symbol>

  <symbol id="person-ghost-44" viewBox="2 3 44 44">
    <path class="person-ghost-44" opacity="0.55" fill="#FFFFFF" d="M29.6,25.9l-2.9-1c0.8-0.7,1.3-1.8,1.3-2.9l0-2.8c0-2.1-1.5-4-3.6-4.2C22,14.8,20,16.7,20,19v3c0,1.2,0.5,2.2,1.3,2.9l-2.9,1c-2,0.7-3.4,2.6-3.4,4.7V33h18v-2.4C33,28.5,31.6,26.5,29.6,25.9z M22,18.8c0-1.1,0.9-2,2-2s2,0.9,2,2v3.5c0,1.1-0.9,2-2,2s-2-0.9-2-2V18.8z M31,31H17v-1c0-1.1,0.7-2,1.7-2.4l5.3-1.8l5.3,1.8c1,0.3,1.7,1.3,1.7,2.4V31z"/>
  </symbol>

  <symbol id="person-ghost-54" viewBox="1 2 54 54">
    <path class="person-ghost-54" opacity="0.55" fill="#FFFFFF" d="M34.8,30.2L30.9,29c1.2-0.9,2.1-2.4,2.1-4v-3c0-2.8-2.2-5-5-5s-5,2.2-5,5v3c0,1.7,0.8,3.1,2.1,4l-3.9,1.2C18.7,31.1,17,33.4,17,36v3h22v-3C39,33.4,37.3,31.1,34.8,30.2z M25,21.8c0-1.7,1.3-3,3-3c1.7,0,3,1.3,3,3v3.5c0,1.7-1.3,3-3,3c-1.7,0-3-1.3-3-3V21.8z M37,37H19v-1.2c0-1.8,1.1-3.3,2.8-3.9L28,30l6.2,1.9c1.7,0.6,2.8,2.1,2.8,3.9V37z"/>
  </symbol>

  <symbol id="person-ghost-70" viewBox="1 2 70 70">
    <path class="person-ghost-70" opacity="0.55" fill="#FFFFFF" d="M44.7,38.9l-4.6-1.5c1.2-1.1,1.9-2.6,1.9-4.4v-5c0-3.3-2.7-6-6-6s-6,2.7-6,6v5c0,1.7,0.7,3.3,1.9,4.4l-4.6,1.5c-3.2,1.1-5.3,4-5.3,7.4V50h28v-3.7C50,42.9,47.9,40,44.7,38.9z M33,27.8c0-1.7,1.3-3,3-3c1.7,0,3,1.3,3,3v5.5c0,1.7-1.3,3-3,3c-1.7,0-3-1.3-3-3V27.8z M47,47H25v-1c0-2.1,1.3-3.9,3.3-4.5l7.7-2.6l7.7,2.6c2,0.7,3.3,2.5,3.3,4.5V47z"/>
  </symbol>

  <symbol id="person-ghost-86" viewBox="1 2 86 86">
    <path class="person-ghost-86" opacity="0.55" fill="#FFFFFF" d="M53.9,46.9l-5.4-1.6C50,44,51,42.1,51,40v-5c0-3.9-3.1-7-7-7c-3.9,0-7,3.1-7,7v5c0,2.1,1,4,2.5,5.3l-5.4,1.6c-3.6,1.2-6.1,4.6-6.1,8.4V60h32v-4.6C60,51.5,57.6,48.1,53.9,46.9z M40,34.8c0-2.2,1.8-4,4-4c2.2,0,4,1.8,4,4v5.5c0,2.2-1.8,4-4,4c-2.2,0-4-1.8-4-4V34.8z M57,57H31v-1.9c0-2.5,1.6-4.8,4-5.6l9-2.7l9,2.7c2.4,0.8,4,3,4,5.6V57z"/>
  </symbol>

  <symbol id="person-ghost-104" viewBox="0 1 104 104">
    <path class="person-ghost-104" opacity="0.55" fill="#FFFFFF" d="M64.4,56.1L57.7,54c2-1.7,3.3-4.1,3.3-7v-6c0-5-4-9-9-9s-9,4-9,9v6c0,2.8,1.3,5.3,3.3,7l-6.7,2.2c-4.5,1.5-7.6,5.8-7.6,10.5V72h40v-5.3C72,61.9,68.9,57.6,64.4,56.1z M47,40.8c0-2.8,2.2-5,5-5s5,2.2,5,5v6.5c0,2.8-2.2,5-5,5s-5-2.2-5-5V40.8z M68,68H36v-1.6c0-3.1,2-5.8,4.8-6.7L52,56.1l11.1,3.6c2.9,1,4.9,3.7,4.9,6.7V68z"/>
  </symbol>

  <symbol id="person-ghost-128" viewBox="0 1 128 128">
    <path class="person-ghost-128" opacity="0.55" fill="#FFFFFF" d="M78.9,69l-7.8-2.5c2.4-2,3.9-5,3.9-8.4v-7c0-6.1-4.9-11-11-11s-11,4.9-11,11v7c0,3.4,1.5,6.4,3.9,8.4L49.1,69c-5.4,1.8-9.1,6.9-9.1,12.6V88h48v-6.4C88,75.9,84.3,70.8,78.9,69z M58,50.8c0-3.3,2.7-6,6-6s6,2.7,6,6v7.5c0,3.3-2.7,6-6,6s-6-2.7-6-6V50.8z M83,83H45v-1.6c0-3.6,2.3-6.8,5.7-7.9L64,69.2l13.3,4.3c3.4,1.1,5.7,4.3,5.7,7.9V83z"/>
  </symbol>

  <use x="0" y="0" xlink:href="#person-ghost-26"></use>
  <use x="0" y="0" xlink:href="#person-ghost-36"></use>
  <use x="0" y="0" xlink:href="#person-ghost-44"></use>
  <use x="0" y="0" xlink:href="#person-ghost-54"></use>
  <use x="0" y="0" xlink:href="#person-ghost-70"></use>
  <use x="0" y="0" xlink:href="#person-ghost-86"></use>
  <use x="0" y="0" xlink:href="#person-ghost-104"></use>
  <use x="0" y="0" xlink:href="#person-ghost-128"></use>
</svg>
